# xmcd
#
# Track frame offsets: 
#        150
#        12835
#        27265
#        40108
#        55824
#        64604
#        77305
#        89668
#        112448
#        127691
#        141654
#        151497
#        168027
#        191700
#        207841
#
# Disc length: 2920 seconds
#
# Revision: 0
# Processed by: cddbd v1.5.2PL0 Copyright (c) Steve Scherf et al.
# Submitted via: ExactAudioCopy v1.0b3
#
DISCID=c60b660f
DTITLE=B.B.King - The Blues King's Best CD1
DYEAR=2013
DGENRE=Blues
TTITLE0=Got The Blues
TTITLE1=B.B.Boogie
TTITLE2=Mistreated Woman
TTITLE3=Walkin' And Cryin'
TTITLE4=A New Way Of Driving
TTITLE5=Please Love Me
TTITLE6=From The Bottom (feat.sonny Boy Williamson)
TTITLE7=Every Day I Have The Blues
TTITLE8=Take My Hand, Precious Lord
TTITLE9=Save A Seat For Me
TTITLE10=Swing Low, Sweet Chariot
TTITLE11=I Am Willing To Run All The Way
TTITLE12=You've Done Lost Your Good Thing Now
TTITLE13=It's My Own Fault
TTITLE14=Catfish Blues (Fishin' After Me)
EXTD=
EXTT0=
EXTT1=
EXTT2=
EXTT3=
EXTT4=
EXTT5=
EXTT6=
EXTT7=
EXTT8=
EXTT9=
EXTT10=
EXTT11=
EXTT12=
EXTT13=
EXTT14=
PLAYORDER=
